<svg xmlns="http://www.w3.org/2000/svg" viewBox="0 0 187.33 196.6">
  <defs>
    <clipPath id="clip-path">
      <path class="cls-1" fill="none" d="M187.33 93.67A93.67 93.67 0 1 1 93.67 0a93.66 93.66 0 0 1 93.66 93.67z"/>
    </clipPath>
    <clipPath id="clip-path-2">
      <path class="cls-1" d="M83.45 104.82c4.1.8 8.4 2.71 11.36 3.48 8 2.06 20.56-6.29 27.26-1.22 5 3.79 2.67 12.9-.66 16.91-9 10.77-30.29 8.93-40.84 1.76-4.89-3.32-10.78-10.86-7.73-17.11 2.16-4.3 6.25-4.64 10.61-3.82z"/>
    </clipPath>
  </defs>
  <g id="Layer_2" data-name="Layer 2">
    <g clip-path="url(#clip-path)" id="object">
      <path d="M187.33 93.67A93.67 93.67 0 1 1 93.67 0a93.66 93.66 0 0 1 93.66 93.67z" fill="#23ad93"/>
      <path d="M45.1 196.6h19.77c.26-9 .6-18 1.51-27 .06-.54.9-11.08 3.43-9.6 2.32 1.36 3.44 17.07 3.72 36.62h19.25c.41-16.62.63-30 .77-31.8 1-11.76 8-20.25 9.43 6.21.13 2.36.49 12.49 1.07 25.59h16.88c.5-22.87 2.27-42.58 6.78-42 4.13.49 5.71 19.15 7.73 42h13.35c-.92-14.91-.87-30.1-.92-46.6-.08-30.69 0-65-10.28-94.33-4.12-11.7-12.68-26-23.85-32.38C92.22 11 61.53 24.43 51.49 45.68c-9.42 19.94-7.16 43.48-6.78 64.89q.75 43.02.39 86.03z" fill="#feb83c"/>
      <path class="cls-5" fill="#fc861d" opacity="0.3" d="M97.8 84.18c13.35-9.4 28.14-21 36.89-35.55-4.65-9.92-12-20.18-21-25.34C92.22 11 61.53 24.43 51.49 45.68c-9 19.11-7.33 41.53-6.84 62.22C64 104.82 81.92 95.37 97.8 84.18z"/>
      <path class="cls-6" fill="#ffd217" d="M65.49 81.48c3.74-2.13 11.37-7.68 10.43-12.79-1.26-6.87-13.49-8.4-18.68-6.06C51.54 65.2 43.08 76 48.32 82c4.02 4.66 12.68 2 17.17-.52zM103.11 67.92c9.89-.75 24.52-17.84 6.76-16.64-9.09.61-21.59 17.77-6.76 16.64z"/>
      <path class="cls-7" fill="#ffd217" opacity="0.6" d="M125.36 66.14a9.16 9.16 0 0 0 6.46-1.14c11.55-6.94-.4-15.11-8.35-7.37-4.36 4.28-1.98 7.7 1.89 8.51zM85.05 65.64a6.58 6.58 0 0 0 4.67-.81c8.35-5-.28-11-6-5.37-3.18 3.1-1.46 5.59 1.33 6.18zM63.05 107.71a6.58 6.58 0 0 0 4.67-.81c8.35-5.05-.28-11-6-5.36-3.18 3.09-1.46 5.58 1.33 6.17z"/>
      <path d="M125.48 50.48c2.79.54 6.09-.43 9-2.21a74.72 74.72 0 0 0-8.77-14.2c-6.38 5.21-9.71 14.58-.23 16.41z" opacity=".8" fill="#ffd217"/>
      <path class="cls-7" fill="#ffd217" opacity="0.6" d="M48.42 53.52c9.42 5.91 26.74 3 36.73.33 13.54-3.63 28.67-11.25 36.75-23.25l.34-.53a39.16 39.16 0 0 0-8.5-6.78C92.22 11 61.53 24.43 51.49 45.68a62.42 62.42 0 0 0-3.07 7.84z"/>
      <path class="cls-6" fill="#ffd217" d="M94.13 83.51a16.61 16.61 0 1 1-16.39-16.85 16.63 16.63 0 0 1 16.39 16.85z"/>
      <path class="cls-9" fill="#fff" d="M90.37 83.46a12.86 12.86 0 1 1-12.68-13 12.85 12.85 0 0 1 12.68 13z"/>
      <path class="cls-10" fill="#f99f3e" d="M86.36 83.4a8.85 8.85 0 1 1-8.73-9 8.85 8.85 0 0 1 8.73 9z"/>
      <path class="cls-11" fill="#0b231c" d="M83.41 83.36a5.9 5.9 0 1 1-5.81-6 5.89 5.89 0 0 1 5.81 6z"/>
      <path class="cls-9" fill="#fff" d="M86.5 79.38a4 4 0 1 1-4-4.07 4 4 0 0 1 4 4.07z"/>
      <path class="cls-6" fill="#ffd217" d="M104 69.74a16.62 16.62 0 1 1-.32 23.51 16.61 16.61 0 0 1 .32-23.51z"/>
      <path class="cls-9" fill="#fff" d="M106.62 72.43a12.87 12.87 0 1 1-.25 18.2 12.84 12.84 0 0 1 .25-18.2z"/>
      <path class="cls-10" fill="#f99f3e" d="M109.42 75.31a8.84 8.84 0 1 1-.17 12.51 8.83 8.83 0 0 1 .17-12.51z"/>
      <path class="cls-11" fill="#0b231c" d="M111.47 77.43a5.9 5.9 0 1 1-.11 8.34 5.89 5.89 0 0 1 .11-8.34z"/>
      <path class="cls-9" fill="#fff" d="M106.48 78.05a4 4 0 1 1-.08 5.69 4 4 0 0 1 .08-5.69z"/>
      <path d="M97 33.45c2 4.43 9.66 4.22 13.06 2.79s7.19-4.57 5.86-8.62c-3.31-9.9-23.14-3.51-18.92 5.83z" opacity=".7" fill="#fff"/>
      <path class="cls-5" fill="#fc861d" opacity="0.3" d="M63.42 144.29c-7-3.71-10.54-11.91-4.13-20.75 4.11-5.67 15.42-10.31 22.34-7.14 14.37 6.6 10.16 23.83-2.72 28.72a18.86 18.86 0 0 1-15.49-.83z"/>
      <path d="M86.07 26.34c1.11 2.5 5.46 2.39 7.38 1.58s4.07-2.58 3.31-4.88c-1.84-5.6-13.05-1.98-10.69 3.3z" fill="#fff" opacity=".3"/>
      <path d="M83.45 104.82c4.1.8 8.4 2.71 11.36 3.48 8 2.06 20.56-6.29 27.26-1.22 5 3.79 2.67 12.9-.66 16.91-9 10.77-30.29 8.93-40.84 1.76-4.89-3.32-10.78-10.86-7.73-17.11 2.16-4.3 6.25-4.64 10.61-3.82z" fill="#d85d09"/>
      <path d="M121.41 124a16.79 16.79 0 0 0 3.11-6.61c-1.93-1-3.8-1-5.35-1.36-9.88-2.51-32.72-3.25-43.38 5.29a23.1 23.1 0 0 0 4.78 4.44c10.55 7.16 31.89 9 40.84-1.76z" fill="#fc861d"/>
      <g clip-path="url(#clip-path-2)">
        <path class="cls-9" fill="#fff" d="M73.77 100.74c0 2.5-1.71 11.05 2.52 12.38 6.48 2 6.49-7 7.64-10.1zM109.39 102.16l.26.56a2.27 2.27 0 0 0-.26-.56zM109.65 102.72a7.51 7.51 0 0 1 0 1.45l-8.34 1c.22 11.83 13.84 9 8.34-2.45zM98.86 101.68c-.9-.48-.6.36-1 .45l-8.56-.65c-1.46 3.26-1.35 10.81 3 12.26 7.09 2.31 6.91-7.6 6.56-12.06zM123.81 99.07c-.9-.48-.6.35-1 .45l-8.57-.65c-1.45 3.26-1.34 10.81 3 12.25 7.1 2.32 6.92-7.6 6.57-12.05z"/>
      </g>
      <path class="cls-6" fill="#ffd217" d="M92.78 196.6c.41-16.62.63-30 .77-31.8.54-6.59 3-12.15 5.3-11.11v-1.13c-11.64-2.38-13.53 19.14-13.14 44zM64.89 196.6c.25-8.76.59-17.51 1.48-26.21.06-.55.9-11.09 3.43-9.6 1.23.72 2.12 5.48 2.73 12.71.23-4.83-.17-13.78-3.92-15.22a4.73 4.73 0 0 0-2.16-.39C55 159 55.31 187.44 55.09 196.6zM108.57 196.6c-1.48-8-3.22-14.39-5.22-16.62.17 4.48.4 10.21.68 16.62zM140.31 196.6a99.65 99.65 0 0 0-3.89-19.8 40.89 40.89 0 0 0-3.81-7.64c1 7.46 1.86 17 2.78 27.44z"/>
      <path class="cls-5" fill="#fc861d" opacity="0.3" d="M147.87 150c-.05-18.56 0-38.45-2.29-57.75-2.35 1.66-4.15 3-4.74 3.54-6.41 6.23-11.89 13.74-14.57 22.36-4.29 13.83.81 26.57 12.17 35.08a56.81 56.81 0 0 0 9.45 5.63c-.01-2.93-.01-5.86-.02-8.86z"/>
    </g>
  </g>
</svg>
