<svg xmlns="http://www.w3.org/2000/svg" viewBox="0 0 214.23 334.49">
  <defs>
    <clipPath id="clip-path">
      <path d="M93.36 107.21c5.1 1 10.45 3.37 14.13 4.32 9.92 2.56 25.59-7.82 33.92-1.52 6.24 4.72 3.32 16-.82 21-11.14 13.4-37.69 11.1-50.81 2.19-6.09-4.13-13.41-13.51-9.61-21.27 2.61-5.31 7.77-5.79 13.19-4.72z" fill="none"/>
    </clipPath>
  </defs>
  <g id="Layer_2" data-name="Layer 2">
    <g id="object">
      <path d="M212.74 303.19a3.37 3.37 0 0 0-.38-.28c-5.5-3.65-9.71 7.49-15.28 6.27s-7.78-10.68-9.22-15.1c-14.69-45.3-14.23-83.72-14.35-130.7-.1-38.16 0-80.85-12.79-117.27C155.59 31.55 145 13.82 131 5.85 104.23-9.49 66 7.27 53.56 33.68c-11.72 24.79-8.91 54.06-8.44 80.68q.95 54 .48 108c-.18 22.19 2.13 48.31-3.81 70-3 10.89-11.68 19.93-23.34 20.3-7.71.24-6.33-7.34-12.58-6.37-8 1.23-6.69 12.71-3.09 17.07 12.93 15.63 35.46 7 47.37-4.23C67.8 302.49 67.61 276 69 253.67c1.4-21.93.86-44.07 3.1-65.95.07-.68 1.11-13.78 4.26-11.93 7.24 4.25 5.12 121.29.55 143.48-1.83 8.89 2.94 18.38 11.92 10.54 5.58-4.88 8.6-13.71 10.89-20.52 4.58-13.63 5.7-121.67 6.18-127.51 1.19-14.63 10-25.17 11.73 7.71.49 9.23 3.89 113.57 9.42 129 2.59 7.21 6.64 12.85 14.2 15.32 4.08 1.34 16.1 1.49 13.55-6.63-2.75-8.77-12-11.55-13.18-22.21-1.24-11.11-5.87-137.42 6.78-135.92 11.56 1.38 7 117.11 28.84 149.81 4 6 8.92 10.12 16.41 10a16.75 16.75 0 0 0 12.85-6.14c2.77-3.22 11.1-15.47 6.24-19.53z" fill="#feb83c"/>
      <path class="cls-3" fill="#fc861d" opacity="0.3" d="M111.22 81.55c16.6-11.69 35-26.1 45.9-44.2C151.33 25 142.24 12.27 131 5.85 104.23-9.49 66 7.27 53.56 33.68 42.37 57.45 44.48 85.32 45.09 111c24.02-3.8 46.36-15.55 66.13-29.45z"/>
      <path class="cls-4" fill="#ffd217" d="M71 78.19c4.66-2.65 14.14-9.54 13-15.9-1.57-8.54-16.78-10.44-23.24-7.53-7.09 3.19-17.61 16.6-11.1 24.1 5 5.77 15.78 2.5 21.34-.67zM117.82 61.34c12.31-.93 30.51-22.19 8.4-20.7-11.3.77-26.85 22.1-8.4 20.7z"/>
      <path class="cls-5" fill="#ffd217" opacity="0.6" d="M145.5 59.12a11.34 11.34 0 0 0 8-1.38c14.38-8.62-.49-18.78-10.38-9.16-5.39 5.28-2.43 9.54 2.38 10.54zM95.36 58.49a8.13 8.13 0 0 0 5.8-1c10.39-6.28-.35-13.68-7.5-6.67-3.92 3.84-1.78 6.95 1.7 7.67zM68 110.8a8.16 8.16 0 0 0 5.81-1c10.39-6.28-.35-13.67-7.5-6.66-3.94 3.86-1.8 6.93 1.69 7.66z"/>
      <path d="M145.65 39.66c3.47.67 7.57-.54 11.26-2.75A91.83 91.83 0 0 0 146 19.25c-8 6.48-12.19 18.12-.35 20.41z" opacity=".8" fill="#ffd217"/>
      <path class="cls-5" fill="#ffd217" opacity="0.6" d="M49.77 43.43c11.73 7.35 33.28 3.75 45.7.42 16.85-4.52 35.68-14 45.73-28.92.14-.22.28-.44.43-.65A48.65 48.65 0 0 0 131 5.85C104.23-9.49 66 7.27 53.56 33.68a78.52 78.52 0 0 0-3.79 9.75z"/>
      <path class="cls-4" fill="#ffd217" d="M106.64 80.71a20.67 20.67 0 1 1-20.39-20.94 20.66 20.66 0 0 1 20.39 20.94z"/>
      <path class="cls-7" fill="#fff" d="M102 80.65a16 16 0 1 1-15.81-16.21A16 16 0 0 1 102 80.65z"/>
      <path class="cls-8" fill="#f99f3e" d="M97 80.58a11 11 0 1 1-10.88-11.14A11 11 0 0 1 97 80.58z"/>
      <path class="cls-9" fill="#0b231c" d="M93.31 80.53a7.34 7.34 0 1 1-7.23-7.43 7.34 7.34 0 0 1 7.23 7.43z"/>
      <path class="cls-7" fill="#fff" d="M97.15 75.59a5 5 0 1 1-4.93-5.07 5 5 0 0 1 4.93 5.07z"/>
      <path class="cls-4" fill="#ffd217" d="M118.93 63.6a20.67 20.67 0 1 1-.4 29.22 20.66 20.66 0 0 1 .4-29.22z"/>
      <path class="cls-7" fill="#fff" d="M122.18 66.94a16 16 0 1 1-.3 22.63 16 16 0 0 1 .3-22.63z"/>
      <path class="cls-8" fill="#f99f3e" d="M125.67 70.53a11 11 0 1 1-.21 15.55 11 11 0 0 1 .21-15.55z"/>
      <path class="cls-9" fill="#0b231c" d="M128.23 73.15a7.33 7.33 0 1 1-.14 10.37 7.34 7.34 0 0 1 .14-10.37z"/>
      <path class="cls-7" fill="#fff" d="M122 73.93a5 5 0 1 1-.1 7.07 5 5 0 0 1 .1-7.07z"/>
      <path d="M110.16 18.48c2.46 5.5 12 5.25 16.25 3.46 4.08-1.72 8.94-5.67 7.28-10.71-4.05-12.31-28.69-4.36-23.53 7.25z" opacity=".7" fill="#fff"/>
      <path class="cls-3" fill="#fc861d" opacity="0.3" d="M68.43 156.28c-8.7-4.62-13.11-14.8-5.13-25.8 5.11-7 19.18-12.81 27.8-8.88 17.86 8.14 12.64 29.63-3.39 35.71a23.53 23.53 0 0 1-19.28-1.03z"/>
      <path d="M96.61 9.64c1.39 3.12 6.8 3 9.19 2s5.06-3.21 4.12-6.06c-2.29-7-16.24-2.5-13.31 4.06z" fill="#fff" opacity=".3"/>
      <path d="M93.36 107.21c5.1 1 10.45 3.37 14.13 4.32 9.92 2.56 25.59-7.82 33.92-1.52 6.24 4.72 3.32 16-.82 21-11.14 13.4-37.69 11.1-50.81 2.19-6.09-4.13-13.41-13.51-9.61-21.27 2.61-5.31 7.77-5.79 13.19-4.72z" fill="#d85d09"/>
      <path d="M140.59 131a20.66 20.66 0 0 0 3.86-8.22c-2.39-1.26-4.72-1.19-6.65-1.68-12.3-3.12-40.71-4-54 6.58a28.61 28.61 0 0 0 6 5.51c13.1 8.95 39.65 11.25 50.79-2.19z" fill="#fc861d"/>
      <g clip-path="url(#clip-path)">
        <path class="cls-7" fill="#fff" d="M81.32 102.13c0 3.11-2.13 13.75 3.13 15.39 8.07 2.53 8.08-8.72 9.5-12.55zM125.63 103.91c.12.23.22.46.33.68a2.79 2.79 0 0 0-.33-.68zM126 104.59a8.28 8.28 0 0 1 .05 1.82l-10.37 1.24c.18 14.7 17.11 11.18 10.32-3.06zM112.53 103.31c-1.12-.6-.75.44-1.23.56l-10.66-.81c-1.8 4-1.66 13.44 3.8 15.23 8.75 2.88 8.56-9.44 8.09-14.98zM143.58 100.06c-1.13-.6-.75.44-1.23.56l-10.66-.81c-1.8 4-1.67 13.44 3.8 15.23 8.75 2.88 8.51-9.44 8.09-14.98z"/>
      </g>
      <path class="cls-4" fill="#ffd217" d="M112.46 166.56C84.53 160.85 101.7 265.65 97.35 298c-3.7 27.62-18.42 31.42-18.42 31.42s-.12.41-.29 1.1c2.06 2.73 5.57 3.31 10.22-.74 5.58-4.88 8.6-13.71 10.89-20.52 4.58-13.63 5.7-121.67 6.18-127.51.66-8.2 3.72-15.11 6.59-13.82-.04-.88-.06-1.37-.06-1.37zM76.38 176.79c1.52.9 2.63 6.82 3.39 15.8.29-6-.2-17.13-4.87-18.92a5.91 5.91 0 0 0-2.7-.48c-14.91 1.5-13.77 40.42-14.17 49.68-1 24 3 50.66-1.72 74.21A35.67 35.67 0 0 1 31 324.76c-13 3.68-26.81-.93-29-15.83-6.81 20.95 17.33 28.54 33.93 21.12C65.45 316.83 67.24 282.6 69 254.67c1.4-21.93.86-44.07 3.09-65.95.09-.72 1.14-13.78 4.29-11.93zM132 286.17c-1.37-16.27-6-76.73-13.91-85.52 1.17 30 4.31 104.87 9 117.83 2.59 7.21 6.64 12.85 14.2 15.32 4 1.31 15.55 1.48 13.69-6.1-22.09 6.3-21.64-26.07-22.98-41.53zM181.41 312.53c-12.94-13.27-13.14-36-14.72-53.25-1.93-21.09-.94-42.1-7.43-62.59a50.9 50.9 0 0 0-4.74-9.49c4.81 34.82 6.14 106.72 22.75 131.65 4 6 8.92 10.12 16.41 10a16.75 16.75 0 0 0 12.85-6.14c2.29-2.67 8.47-11.65 7.61-16.91-7.05 11.2-22.49 17.2-32.73 6.73z"/>
      <path class="cls-15" opacity="0.4" fill="#fff" d="M196.11 312.41c11 6.49 2.45 16.52-7.57 11.82-13.08-6.12-6.31-20.01 7.57-11.82zM79.87 311.92c3.6-9.93 10.33-5.63 7.82 3.14-3.27 11.45-12.35 9.39-7.82-3.14z"/>
      <path class="cls-3" fill="#fc861d" opacity="0.3" d="M173.51 163.38c-.06-23.07 0-47.8-2.85-71.8-2.92 2.06-5.17 3.7-5.9 4.4-8 7.75-14.8 17.08-18.12 27.8-5.34 17.2 1 33 15.13 43.62a72 72 0 0 0 11.76 7c-.01-3.65-.01-7.32-.02-11.02z"/>
    </g>
  </g>
</svg>
