<svg xmlns="http://www.w3.org/2000/svg" viewBox="0 0 187.33 191.6">
  <defs>
    <clipPath id="clip-path">
      <path class="cls-1" fill="none" d="M187.33 93.67A93.67 93.67 0 1 1 93.67 0a93.66 93.66 0 0 1 93.66 93.67z"/>
    </clipPath>
    <clipPath id="clip-path-2">
      <path class="cls-1" fill="none" d="M122.77 100.38c-3.85-8.06-14.74-8.3-24.38-8.23-13.19.08-42.52-5.56-40.26 17 3 29.28 63.64 30.92 66 .68a18.35 18.35 0 0 0-1.36-9.45z"/>
    </clipPath>
  </defs>
  <g id="Layer_2" data-name="Layer 2">
    <g clip-path="url(#clip-path)" id="object">
      <path d="M187.33 93.67A93.67 93.67 0 1 1 93.67 0a93.66 93.66 0 0 1 93.66 93.67z" fill="#ffde52"/>
      <path class="cls-4" fill="#007aa0" d="M61.62 39.76c-3.51-2.76-7.7-11.25-12.15-11.95C35 25.53 45.85 70 67.76 61.37l10.85-18.26c-5.95 2.94-11.88.66-16.99-3.35zM125 39.76c3.51-2.76 7.7-11.25 12.15-11.95 14.47-2.28 3.62 42.23-18.29 33.56L108 43.11c5.91 2.94 11.85.66 17-3.35zM58.82 191.6a9.52 9.52 0 0 0-.54-1.73c-2.62-6.27-5.54-7.27-2.73-15.43C59 164.51 71.72 153 82 152.64v-9.83c-13.49-1-29.49 13.9-36.09 24.61-4.21 6.85-8.41 16.25-9.91 24.18zM131 174.44c2.82 8.16-.1 9.16-2.72 15.43a9.58 9.58 0 0 0-.55 1.73h22.85c-1.52-7.93-5.72-17.33-9.94-24.18-6.59-10.71-22.6-25.57-36.08-24.61v9.83c10.24.36 22.98 11.87 26.44 21.8z"/>
      <path class="cls-5" fill="#009edb" d="M61.1 191.6h63.47c-6.23-16.75-15.79-33.41-12.1-50.19H73.2c3.7 16.78-5.86 33.44-12.1 50.19z"/>
      <path class="cls-5" fill="#009edb" d="M150.47 117.54c.27-5.64-1.5-22.43-7.21-27.79-3.24-8.72-7.84-17.48-11-24.41-5.23-11.62-13.86-19.28-23.57-23-2.26-6.43-4.59-14.42-10.35-17.38-.21 3.88 0 7.92-.24 11.8-2.18-1.95-3.78-5-6.51-6.17-.1 1.41-1.49 3.28-1.59 4.73-2.62-2.19-4.66-5.71-7.86-6.14-.49 3.39-.3 7.14 1.33 10.16-3.44-1.78-9-5.48-9.57-10.06-2.71 6.11-.2 10.6 2.3 14.56C74.1 40.58 58 61.33 57 63.35c-5 9.33-8.32 19.5-13.71 28.65-5.57 9.41-10.86 18.83-10.12 30.27a9.74 9.74 0 0 1 4.8-5.86c-.95 6.84 3.74 17.33 8.14 22 0-1.65.64-3 .61-4.49 3.07 6.6 9.43 8.58 15.32 10.95-.42-.94-.43-1.94-.81-2.81A67.94 67.94 0 0 0 72 143.35l.69.23c10.47 3.31 24.33 4 37.26 1.41l-2.21 4.84c5.26-4.26 15.39-.52 19.71-8.17a49.46 49.46 0 0 0-1.3 6.68c5.2-2.25 11.31-8.26 13.45-13.36.52 1.59 2.13 4.23 2.58 5.65 1.2-8.2 2.9-15.34 3.46-23.38a36.29 36.29 0 0 0 1.05-4.94c1.57.45 2.31 4.84 3.78 5.23z"/>
      <g clip-path="url(#clip-path-2)">
        <path class="cls-7" fill="#028db7" d="M77.3 123.07c-.62.16-.51.27 0 0z"/>
        <path d="M122.77 100.38c-3.85-8.06-14.74-8.3-24.38-8.23-13.19.08-42.52-5.56-40.26 17 3 29.28 63.64 30.92 66 .68a18.35 18.35 0 0 0-1.36-9.45z" fill="#012023"/>
        <path d="M104.33 105.6c-5.84.69-8.62 7.75-14.23 8.48-4.22.54-6.48-2.73-10.13-3.58-6.67-1.56-13.42 3-17.61 9.17 13.24 17.1 52.68 16.44 60.48-4.07-4.01-6.35-10.84-10.9-18.51-10z" fill="#0d6f8e"/>
        <path class="cls-10" fill="#fff" d="M65 93.67s10.18 27.38 15.6 24.57 4.74-28.09 4.74-28.09-12.16-1.4-20.34 3.52zM118.63 93.67s-10.17 27.38-15.63 24.57-4.75-28.09-4.75-28.09 12.25-1.4 20.38 3.52z"/>
      </g>
      <path class="cls-7" fill="#028db7" d="M77.3 123.07c-.62.16-.51.27 0 0z"/>
      <path class="cls-11" fill="#2ec0ed" d="M91.89 74.28A13.81 13.81 0 1 1 78.28 59.8a14 14 0 0 1 13.61 14.48z"/>
      <path class="cls-10" fill="#fff" d="M88.77 74.24A10.69 10.69 0 1 1 78.23 63a10.85 10.85 0 0 1 10.54 11.24z"/>
      <path d="M85.44 74.19a7.35 7.35 0 1 1-7.25-7.7 7.49 7.49 0 0 1 7.25 7.7z" fill="#f05539"/>
      <path class="cls-13" fill="#0b231c" d="M83 74.16A4.9 4.9 0 1 1 78.16 69 5 5 0 0 1 83 74.16z"/>
      <path class="cls-10" fill="#fff" d="M85.55 70.74a3.34 3.34 0 1 1-3.29-3.51 3.39 3.39 0 0 1 3.29 3.51z"/>
      <path class="cls-11" fill="#2ec0ed" d="M98.38 67.49a11.79 11.79 0 0 1 17.08.23 12.82 12.82 0 0 1-.24 17.68 11.77 11.77 0 0 1-17.07-.24 12.82 12.82 0 0 1 .23-17.67z"/>
      <path class="cls-10" fill="#fff" d="M100.29 69.51a9.11 9.11 0 0 1 13.21.18 9.94 9.94 0 0 1-.17 13.69 9.12 9.12 0 0 1-13.22-.18 9.93 9.93 0 0 1 .18-13.69z"/>
      <path d="M102.32 71.68a6.27 6.27 0 0 1 9.09.12 6.83 6.83 0 0 1-.12 9.41 6.26 6.26 0 0 1-9.09-.13 6.81 6.81 0 0 1 .12-9.4z" fill="#f99f3e"/>
      <path class="cls-13" fill="#0b231c" d="M103.82 73.27a4.17 4.17 0 0 1 6.05.08 4.53 4.53 0 0 1-.08 6.27 4.19 4.19 0 0 1-6.06-.08 4.54 4.54 0 0 1 .09-6.27z"/>
      <path class="cls-10" fill="#fff" d="M100.18 73.74a2.85 2.85 0 0 1 4.13.05 3.1 3.1 0 0 1 0 4.28 2.84 2.84 0 0 1-4.13-.06 3.09 3.09 0 0 1 0-4.27z"/>
      <path d="M107.23 191.6c-9.08-4.94-20.56-4.39-30.38 0z" fill="#23bae8"/>
    </g>
  </g>
</svg>
