<svg xmlns="http://www.w3.org/2000/svg" viewBox="0 0 174.12 347.13">
  <defs>
    <clipPath id="clip-path">
      <path d="M132.26 107.49c-5.68-11.48-21.73-11.82-36-11.74-19.46.12-62.72-7.91-59.37 24.2 4.35 41.7 93.86 44 97.34 1 .49-5.68-.23-10.06-1.97-13.46z" fill="none"/>
    </clipPath>
  </defs>
  <g id="Layer_2" data-name="Layer 2">
    <g id="object">
      <path class="cls-2" fill="#007aa0" d="M42.07 21.14c-5.18-3.93-11.36-16-17.93-17C2.8.87 18.81 64.27 51.12 51.92l16-26c-8.76 4.19-17.52.93-25.05-4.78zM135.49 21.14c5.18-3.93 11.35-16 17.92-17 21.34-3.25 5.34 60.15-27 47.8l-16-26c8.79 4.17 17.59.91 25.08-4.8zM18.9 203C8.47 219.33-1.88 245.92 6.29 255.74c8.83 4.18 11-3.39 9.83-10 3.73 9.36 14.65 15 13-2 3.63 8.2 12.09.57 8-8.82-3.87-8.94-8.18-10.36-4-22 5.05-14.15 23.85-30.58 39-31.05v-14C52.24 166.54 28.63 187.72 18.9 203zM158.57 203c10.43 16.36 20.78 42.95 12.6 52.77-8.82 4.18-10.95-3.39-9.83-10-3.72 9.36-14.64 15-13-2-3.62 8.2-12.08.57-8-8.82 3.87-8.94 8.18-10.36 4-22-5.06-14.15-23.85-30.58-39-31.05v-14c19.89-1.36 43.5 19.82 53.23 35.1zM35.5 277.92c.74 16.24 10 33.92 19.42 47.05-8-2.18-22.56.78-26.63 8.9-5.75 11.43 12 14 21.39 13.1 6.44-.62 27.15-1.41 30.57-7s-2.65-32.33-5.63-37.62zM142 276.92c-.73 16.24-9.94 33.92-19.41 47.05 8-2.18 22.56.78 26.63 8.9 5.75 11.43-12 14-21.39 13.1-6.44-.62-27.15-1.41-30.57-7s2.65-32.33 5.63-37.62z"/>
      <path class="cls-3" fill="#009edb" d="M117.08 165.92H59.14c8 35.07-26.08 69.73-25 105.05 1.61 53.72 106.38 53.24 108 0 1.01-35.32-33.07-69.97-25.06-105.05z"/>
      <path class="cls-3" fill="#009edb" d="M173.12 131.92c.4-8-2.22-31.94-10.63-39.58-4.78-12.41-11.58-24.89-16.18-34.76-7.73-16.58-20.44-27.47-34.78-32.82C108.21 15.6 104.77 4.23 96.27 0c-.3 5.54 0 11.29-.35 16.81C92.71 14 90.35 9.73 86.32 8c-.19 2.1-2.25 4.73-2.45 6.8C80 11.71 77 6.68 72.27 6.07c-.71 4.84-.44 10.17 2 14.48C69.17 18 61 12.74 60.12 6.22c-4 8.7-.29 15.09 3.39 20.73-3-4.64-26.75 24.91-28.33 27.79C27.9 68 23 82.52 15 95.5 6.82 108.91-1 122.32.1 138.62c.92-3.6 3.8-6.54 7.09-8.35-1.41 9.73 5.51 24.73 12 31.35-.06-2.34.94-4.21.91-6.4 4.52 9.41 13.9 12.23 22.6 15.6-.62-1.33-.64-2.77-1.2-4a105.25 105.25 0 0 0 15.91 1.86l1 .33c15.43 4.71 35.89 5.75 55 2l-3.26 6.9c7.77-6.08 22.7-.74 29.07-11.65a71.36 71.36 0 0 0-1.92 9.52c7.68-3.2 16.69-11.76 19.85-19 .76 2.26 3.14 6 3.81 8 1.77-11.69 4.27-21.85 5.09-33.31a49.7 49.7 0 0 0 1.55-7c2.25.65 3.29 6.9 5.52 7.45z"/>
      <g clip-path="url(#clip-path)">
        <path class="cls-5" fill="#028db7" d="M65.2 139.81c-.92.21-.76.37 0 0z"/>
        <path d="M132.26 107.49c-5.68-11.48-21.73-11.82-36-11.74-19.46.12-62.72-7.91-59.37 24.2 4.35 41.7 93.86 44 97.34 1 .49-5.68-.23-10.06-1.97-13.46z" fill="#012023"/>
        <path d="M105.07 114.92c-8.62 1-12.72 11-21 12.07-6.21.78-9.55-3.88-14.93-5.09-9.85-2.22-19.8 4.23-26 13.06 19.52 24.35 77.69 23.42 89.2-5.8-5.89-9.05-15.91-15.53-27.27-14.24z" fill="#0d6f8e"/>
        <path class="cls-8" fill="#fff" d="M47.12 97.92s15 39 23 35 7-40 7-40-18-2-30 5zM126.16 97.92s-15 39-23 35-7-40-7-40 18-2 30 5z"/>
      </g>
      <path class="cls-5" fill="#028db7" d="M65.2 139.81c-.92.21-.76.37 0 0z"/>
      <path class="cls-9" fill="#2ec0ed" d="M86.72 70.31a20.36 20.36 0 1 1-20.08-20.62 20.37 20.37 0 0 1 20.08 20.62z"/>
      <path class="cls-8" fill="#fff" d="M82.12 70.25a15.76 15.76 0 1 1-15.55-16 15.77 15.77 0 0 1 15.55 16z"/>
      <path d="M77.2 70.19a10.84 10.84 0 1 1-10.69-11 10.84 10.84 0 0 1 10.69 11z" fill="#f05539"/>
      <path class="cls-11" fill="#0b231c" d="M73.58 70.14a7.22 7.22 0 1 1-7.12-7.32 7.21 7.21 0 0 1 7.12 7.32z"/>
      <path class="cls-8" fill="#fff" d="M77.37 65.26a4.93 4.93 0 1 1-4.86-5 4.93 4.93 0 0 1 4.86 5z"/>
      <path class="cls-9" fill="#2ec0ed" d="M96.29 60.63A17.81 17.81 0 1 1 96 85.81a17.8 17.8 0 0 1 .29-25.18z"/>
      <path class="cls-8" fill="#fff" d="M99.1 63.51A13.79 13.79 0 1 1 98.83 83a13.78 13.78 0 0 1 .27-19.49z"/>
      <path d="M102.1 66.6a9.48 9.48 0 1 1-.18 13.4 9.49 9.49 0 0 1 .18-13.4z" fill="#f99f3e"/>
      <path class="cls-11" fill="#0b231c" d="M104.31 68.86a6.32 6.32 0 1 1-.12 8.94 6.32 6.32 0 0 1 .12-8.94z"/>
      <path class="cls-8" fill="#fff" d="M99 69.54a4.31 4.31 0 1 1-.08 6.09 4.3 4.3 0 0 1 .08-6.09z"/>
      <path d="M83 298.77c-17.65-.63-34.52-8.71-38.92-26.54-3.74-15.18 6-28.4 19.74-34.53 20.41-9.1 45.94-7.31 59.5 12.13 21.03 30.1-10.72 49.98-40.32 48.94z" fill="#23bae8"/>
    </g>
  </g>
</svg>
