<svg xmlns="http://www.w3.org/2000/svg" viewBox="0 0 187.33 209.6">
  <defs>
    <clipPath id="clip-path">
      <circle cx="93.67" cy="93.67" r="93.67" fill="none"/>
    </clipPath>
  </defs>
  <g id="Layer_2" data-name="Layer 2">
    <g clip-path="url(#clip-path)" id="object">
      <circle cx="93.67" cy="93.67" r="93.67" fill="#c943b0"/>
      <path class="cls-4" fill="#269c44" d="M82.67 209.6c-.79-5.92-1.41-11.8-1.67-17.6H66.08c.4 5.92 2.33 11.78 3.71 17.6zM124.59 209.6c1.39-5.82 3.31-11.68 3.71-17.6h-14.91c-.85 5.73-1.83 11.62-2.84 17.6z"/>
      <path class="cls-5" fill="#5fac44" d="M69.71 53.84c-3.32-3.28-8.21-5.09-12.42-7.15-6.37-3.11-12.6-5.62-17.5-10.32-5.12 7.87-3.07 23.24-.15 31.41C41.26 72.3 49 87.47 55.3 86.88l21.53-26c-3.42-.11-4.83-4.78-7.12-7.04z"/>
      <path class="cls-6" fill="#fce314" d="M56.56 77.62s-13.81-7.55-11.05-27.54c0 0 22.1 4.89 22.56 17.32z"/>
      <path class="cls-5" fill="#5fac44" d="M117.21 53.84c3.32-3.28 8.21-5.09 12.41-7.15 6.37-3.11 12.6-5.62 17.51-10.32 5.12 7.87 3.06 23.24.14 31.41-1.61 4.52-9.38 19.69-15.66 19.1l-21.52-26c3.41-.11 4.83-4.78 7.12-7.04z"/>
      <path class="cls-6" fill="#fce314" d="M130.36 77.62s13.81-7.55 11-27.54c0 0-22.1 4.89-22.56 17.32z"/>
      <path d="M144 124a10.59 10.59 0 0 0 4.76 1.34c-1.62 0-8-15.89-8.65-18.1-2.73-9-2.24-18.58-3.54-27.86a28.85 28.85 0 0 0-3.29-10 9.9 9.9 0 0 1 3.1-4.06 8 8 0 0 0-6.51-2.09c.68-.82 1.7-3 2.38-3.83a23.87 23.87 0 0 0-7.47.32c-.81-.61-1.65-1.19-2.52-1.73a41.43 41.43 0 0 0-3.65-2 15.07 15.07 0 0 0-4.39-9.99c-3.07-3.42-9.87-11-9-1.3a15.11 15.11 0 0 0-7.56-8.91 11.72 11.72 0 0 0-2.48 6.93c-.06-5.32-4.87-9.8-7.4-14.21-1.19 4.15-1.65 8.24-3.6 12.26-1.53 3.13-4.64 5.68-5.51 8.94a16.33 16.33 0 0 1-1-7.18c-2.1 4.69-7.32 8.57-7.52 13.73C69.1 56.77 68 57.37 67 58c-.37.23-.74.47-1.1.72-4 0-8.29.45-12.16.7 1.07 1.2 1.76 2.31 3.3 2.93-1.74-.46-3.47-1.11-5.18-1.57a9.8 9.8 0 0 0 3.78 7 8.35 8.35 0 0 1-6.1-2.35c.77 3.31 3 4.76 5.43 6a29.41 29.41 0 0 0-2.28 8c-1.45 10.26-.77 20.63-2.84 30.84a118.37 118.37 0 0 1-3.25 11.94c-1.91 3.37-3.2 7.28-5.42 10.62-2.83 4.24-7 7.26-9.84 11.18a12.76 12.76 0 0 0 5.78 1.08c-3.92 7.11-3.29 20.89-1 27.5a8.39 8.39 0 0 1 3.43-5c-.16 8.79 6.82 19 13.67 24.29a12.33 12.33 0 0 1-.59-4.66c2.86 5.8 12.46 12.57 18.87 12.78a15.43 15.43 0 0 1 .13-2.73c1.83-2.79 14 2.38 16.42 2.69 3 .39 20 2.63 20.56-2.49A9.63 9.63 0 0 1 107 202c6.8-3.53 14.36-5.1 20.23-10.41-.68 2.16-1.4 4.34-1.85 6.39 7.8-1.06 11.7-12.41 17.36-16.93a19.06 19.06 0 0 0-.31 6.45c7.75-5.58 9-18.16 9.49-26.84a16.44 16.44 0 0 1 2.42 4.93c-.03-12.38.49-33.13-10.34-41.59z" fill="#81c33f"/>
      <path class="cls-8" fill="#6ab147" d="M90.62 98.71A13.52 13.52 0 1 1 77.1 85.19a13.51 13.51 0 0 1 13.52 13.52z"/>
      <path class="cls-9" fill="#fff" d="M87.57 98.71A10.47 10.47 0 1 1 77.1 88.24a10.47 10.47 0 0 1 10.47 10.47z"/>
      <path class="cls-10" fill="#f5933c" d="M84.3 98.71a7.2 7.2 0 1 1-7.2-7.2 7.19 7.19 0 0 1 7.2 7.2z"/>
      <path class="cls-11" fill="#0b231c" d="M81.9 98.71a4.8 4.8 0 1 1-4.8-4.8 4.79 4.79 0 0 1 4.8 4.8z"/>
      <path class="cls-9" d="M84.37 95.44a3.27 3.27 0 1 1-3.27-3.27 3.27 3.27 0 0 1 3.27 3.27z"/>
      <path class="cls-8" fill="#6ab147" d="M118.22 99.39a10.76 10.76 0 1 1-10.76-10.76 10.76 10.76 0 0 1 10.76 10.76z"/>
      <circle class="cls-9" fill="#fff" cx="107.46" cy="99.39" r="8.33" transform="rotate(-1.59 107.45896197 99.51913131)"/>
      <path class="cls-10" fill="#f5933c" d="M113.19 99.39a5.73 5.73 0 1 1-5.73-5.73 5.73 5.73 0 0 1 5.73 5.73z"/>
      <path class="cls-11" fill="#0b231c" d="M111.28 99.39a3.82 3.82 0 1 1-3.82-3.82 3.82 3.82 0 0 1 3.82 3.82z"/>
      <path class="cls-9" fill="#fff" d="M113.25 96.79a2.61 2.61 0 1 1-2.61-2.61 2.6 2.6 0 0 1 2.61 2.61z"/>
      <path class="cls-12" fill="#0a6b3e" d="M85.58 91.84c-4.06 1.52-9.66-.5-13.37-1.37-1.63-.39-14.19-7.09-13.85-7.24 3.53-1.58 8.26.59 11.94.68-2.22-1-3.09-3.38-3.47-5.76 3 .37 5.79 2.55 8.7 3.65a20.55 20.55 0 0 1-2.45-5.43c1.68-.37 9.67 4.37 11.92 5.48 4.07 2 6.44 5.81 2.32 9a6.71 6.71 0 0 1-1.74.99zM100.05 95.59c4.06 1.52 9.66-.49 13.38-1.37 1.63-.38 14.19-7.08 13.84-7.24-3.53-1.58-8.25.59-11.94.68 2.22-1 3.1-3.38 3.47-5.76-3 .38-5.79 2.55-8.7 3.66a20.79 20.79 0 0 0 2.46-5.44c-1.69-.36-9.67 4.37-11.93 5.48-4.08 2-6.45 5.82-2.33 9a6.55 6.55 0 0 0 1.75.99z"/>
      <path class="cls-9" fill="#fff" d="M73.11 120.67s-7.8 7.8 2.6 11.91c10.64 4.21 10.4-6.71 10.4-6.71zM112.27 120.67s7.8 7.8-2.6 11.91c-10.64 4.21-10.4-6.71-10.4-6.71z"/>
      <path class="cls-12" fill="#0a6b3e" d="M92.71 127.19c-20.61 0-29-14.66-29.35-15.3a2.61 2.61 0 0 1 4.56-2.54c.31.53 7.59 13 25.69 12.6 17.92-.41 22.34-14.27 22.38-14.41a2.61 2.61 0 1 1 5 1.52c-.06.18-5.61 17.61-27.26 18.11z"/>
      <path class="cls-13" fill="#0a6b3e" opcaity="0.3" d="M62.43 114.21c-1.31 3.2-4.34 5-6.78 4s-3.34-4.4-2-7.59 4.35-5 6.78-4 3.31 4.38 2 7.59zM147.38 135.94a6.26 6.26 0 1 1-6.26-6.26 6.25 6.25 0 0 1 6.26 6.26zM85.81 69.36a4.26 4.26 0 1 1-4.26-4.26 4.25 4.25 0 0 1 4.26 4.26zM124.37 144.45a3.26 3.26 0 1 1-3.25-3.26 3.26 3.26 0 0 1 3.25 3.26zM84.32 159a3.25 3.25 0 1 1-3.25-3.25 3.25 3.25 0 0 1 3.25 3.25zM47.28 139.44a3.26 3.26 0 1 1-3.28-3.25 3.25 3.25 0 0 1 3.28 3.25zM132.17 104.59c1.86 4.46.88 9.12-2.19 10.4s-7.06-1.31-8.92-5.78-.88-9.12 2.18-10.4 7.06 1.31 8.93 5.78zM68.39 141c-2 4.41-6.65 6.61-10.44 4.91s-5.25-6.66-3.27-11.07 6.66-6.61 10.45-4.91 5.25 6.67 3.26 11.07zM113.3 57.91c1.18 2.65.71 5.44-1.06 6.23s-4.17-.71-5.35-3.36-.71-5.45 1.06-6.24 4.17.72 5.35 3.37zM100.58 141.44a5.26 5.26 0 1 1-5.26-5.26 5.27 5.27 0 0 1 5.26 5.26z"/>
    </g>
  </g>
</svg>
