<svg xmlns="http://www.w3.org/2000/svg" viewBox="0 0 275.28 355.83">
  <g id="Layer_2" data-name="Layer 2">
    <g id="object">
      <path class="cls-1" fill="#269c44" d="M187.67 102.67c32.41-16.89 45.48-30.87 58.24-49.41 2.58 3.15 2.34 5.87 5.64 8.18-21.67 39-48.51 55.19-57.45 61.26-.81.55-4.1-13.7-6.43-20.03z"/>
      <path class="cls-2" fill="#81c33f" d="M269.24 65.07c8.72-6.58 8.51-16.26-4-14.57 0 0 7.79-9.8.67-15.69-4.81-4-11 3.19-15.16 5-1.3-4.34-1.11-8.76-6.48-9.38-6.16-.71-9.2 6-11 10.21-3.48 8.42-2.76 20.65 3.91 27.29 8.76 8.63 23.41 3.68 32.06-2.86z"/>
      <path class="cls-3" fill="#fce314" d="M253.67 49.32c-14.28-6-19.46 10.12-6.82 16.2 12.86 6.2 19.08-11.03 6.82-16.2zM243.48 33.8c-5.74.14-7.55 8.67-1.37 9.67 6.89 1.1 8.61-9.85 1.37-9.67zM263.05 36.52c-7-.74-9.13 10.1-1.54 10.83 6.87.65 8.63-10.07 1.54-10.83zM270.17 52.47c-5.33-.56-7 7.7-1.17 8.26 5.24.5 6.58-7.68 1.17-8.26z"/>
      <path class="cls-1" fill="#269c44" d="M87.61 102.67C55.2 85.78 42.13 71.8 29.37 53.26c-2.58 3.15-2.34 5.87-5.65 8.18 21.67 39 48.52 55.19 57.46 61.26.82.55 4.08-13.7 6.43-20.03z"/>
      <path class="cls-2" fill="#81c33f" d="M6 65.07c-8.72-6.58-8.51-16.26 4-14.57 0 0-7.79-9.8-.66-15.69 4.8-4 11 3.19 15.16 5 1.3-4.34 1.11-8.76 6.48-9.38 6.16-.71 9.2 6 11 10.21C45.44 49 44.71 61.25 38 67.89c-8.66 8.67-23.31 3.72-32-2.82z"/>
      <path class="cls-3" fill="#fce314" d="M21.61 49.32c14.28-6 19.45 10.12 6.82 16.2-12.87 6.2-19.09-11.03-6.82-16.2zM31.8 33.8c5.74.14 7.54 8.67 1.37 9.67-6.85 1.1-8.61-9.85-1.37-9.67zM12.22 36.52c7-.74 9.13 10.1 1.55 10.83-6.88.65-8.63-10.07-1.55-10.83zM5.1 52.47c5.33-.56 7 7.7 1.18 8.26-5.28.5-6.58-7.68-1.18-8.26z"/>
      <path class="cls-1" fill="#269c44" d="M98.51 217.8c.58 8.64 3.62 17.18 5.45 25.67 4.05 18.78 7.5 37.62 11.32 56.45 2.38 11.76 8.46 31.19 2.59 42.68 5.26-2.87 8.28-1.16 14.16-1.38 2.22-40.93-11.83-83.5-13.66-123.42z"/>
      <path class="cls-2" fill="#81c33f" d="M119.46 321.12c-5.34.49-12.71-.87-15.86-5.6 0 5.07 5.44 9.14 9 12-2.62 0-5.38.16-7.66-.69.42 1.26.11 2.66 1 4.11-9.32-4.69-24.18-3-27.75 8.54-3.81 12.35 13.54 16.73 22.65 16.3 15-.71 26.4 1.71 34.18-6.9 5.18-5.73 5.27-22.85-2.85-27.78z"/>
      <path class="cls-1" fill="#269c44" d="M181.37 217.8c-.59 8.64-3.62 17.18-5.46 25.67-4 18.78-7.5 37.62-11.31 56.45-2.39 11.76-8.46 31.19-2.59 42.68-5.26-2.87-8.29-1.16-14.17-1.38-2.22-40.93 8-84.75 13.66-123.42z"/>
      <path class="cls-2" fill="#81c33f" d="M160.41 321.12c5.34.49 12.71-.87 15.86-5.6 0 5.07-5.44 9.14-9 12 2.61 0 5.38.16 7.66-.69-.42 1.26-.11 2.66-1 4.11 9.32-4.69 24.17-3 27.74 8.54 3.81 12.35-13.54 16.73-22.64 16.3-15-.71-26.4 1.71-34.18-6.9-5.18-5.73-5.28-22.85 2.84-27.78z"/>
      <path class="cls-4" fill="#5fac44" d="M103.34 33.8C98.91 29.43 92.4 27 86.8 24.28 78.32 20.13 70 16.8 63.48 10.53c-6.81 10.47-4.07 30.95-.19 41.83 2.16 6 12.5 26.23 20.86 25.44l28.67-34.67c-4.55-.13-6.43-6.31-9.48-9.33z"/>
      <path class="cls-3" fill="#fce314" d="M85.82 65.47S67.43 55.41 71.11 28.8c0 0 29.43 6.5 30 23.06z"/>
      <path class="cls-4" fill="#5fac44" d="M166.59 33.8c4.42-4.37 10.94-6.78 16.54-9.52 8.48-4.15 16.78-7.48 23.31-13.75 6.82 10.49 4.08 30.95.19 41.83-2.15 6-12.5 26.23-20.86 25.44l-28.66-34.67c4.55-.13 6.43-6.31 9.48-9.33z"/>
      <path class="cls-3" fill="#fce314" d="M184.1 65.47s18.4-10.06 14.72-36.67c0 0-29.43 6.5-30 23.06z"/>
      <path class="cls-2" fill="#81c33f" d="M202.22 127.25a14 14 0 0 0 6.33 1.78c-2.15-.05-10.63-21.16-11.51-24.1-3.63-12.06-3-24.75-4.72-37.1a38.74 38.74 0 0 0-4.32-13.3 13.15 13.15 0 0 1 4.12-5.4c-2.09-2.23-5.56-3.09-8.66-2.78.89-1.1 2.26-4 3.16-5.1a31.49 31.49 0 0 0-9.94.43c-1.09-.82-2.21-1.59-3.37-2.31a52.92 52.92 0 0 0-4.86-2.68c-.42-5-1.46-8.58-5.78-13.39-4.1-4.56-13.15-14.58-11.93-1.74A20.11 20.11 0 0 0 140.62 9.7a15.66 15.66 0 0 0-3.3 9.23c-.08-7.09-6.48-13-9.85-18.93-1.59 5.52-2.19 11-4.8 16.33-2 4.17-6.17 7.57-7.33 11.9a21.55 21.55 0 0 1-1.34-9.56c-2.79 6.24-9.75 11.41-10 18.29-1.48.75-2.92 1.55-4.3 2.41-.5.31-1 .63-1.46 1-5.36 0-11 .61-16.19.94 1.42 1.6 2.34 3.07 4.39 3.9-2.32-.6-4.62-1.48-6.9-2.09.23 3.82 2.18 6.81 5 9.26a11.18 11.18 0 0 1-8.13-3.13c1 4.41 4 6.33 7.24 8a39.11 39.11 0 0 0-3 10.63c-1.92 13.67-1 27.47-3.78 41.07a155.25 155.25 0 0 1-4.33 15.91c-2.54 4.43-4.25 9.64-7.22 14.14-3.76 5.64-9.3 9.66-13.1 14.88 2.16 1.19 5 1.41 7.7 1.44-5.22 9.47-4.38 27.83-1.3 36.63.78-2.71 2.21-5.32 4.57-6.7-.22 11.7 9.07 25.35 18.19 32.35a16.36 16.36 0 0 1-.77-6.22c3.81 7.73 16.58 16.74 25.12 17a22.2 22.2 0 0 1 .17-3.63c2.45-3.72 18.72 3.17 21.87 3.58 3.94.52 26.67 3.51 27.38-3.31a12.88 12.88 0 0 1-2.21 6.08c9.07-4.71 19.13-6.79 26.95-13.87-.91 2.87-1.87 5.77-2.47 8.51 10.39-1.41 15.59-16.54 23.12-22.54a25.62 25.62 0 0 0-.42 8.58c10.33-7.43 12-24.19 12.65-35.75a22 22 0 0 1 3.22 6.58c.01-16.47.7-44.11-13.77-55.36z"/>
      <path class="cls-5" fill="#6ab147" d="M131.18 93.55a18 18 0 1 1-18-18 18 18 0 0 1 18 18z"/>
      <circle class="cls-6" fill="#fff" cx="113.18" cy="93.55" r="13.94" transform="rotate(-45 113.1794815 93.54952378)"/>
      <path class="cls-7" fill="#f5933c" d="M122.76 93.55a9.58 9.58 0 1 1-9.58-9.55 9.58 9.58 0 0 1 9.58 9.55z"/>
      <path class="cls-8" fill="#0b231c" d="M119.57 93.55a6.39 6.39 0 1 1-6.39-6.39 6.39 6.39 0 0 1 6.39 6.39z"/>
      <path class="cls-6" fill="#fff" d="M122.86 89.2a4.36 4.36 0 1 1-4.35-4.36 4.35 4.35 0 0 1 4.35 4.36z"/>
      <path class="cls-5" fill="#6ab147" d="M168 94.47a14.34 14.34 0 1 1-14.34-14.34A14.34 14.34 0 0 1 168 94.47z"/>
      <path class="cls-6" fill="#fff" d="M164.71 94.47a11.1 11.1 0 1 1-11.1-11.1 11.1 11.1 0 0 1 11.1 11.1z"/>
      <path class="cls-7" fill="#f5933c" d="M161.24 94.47a7.63 7.63 0 1 1-7.63-7.63 7.62 7.62 0 0 1 7.63 7.63z"/>
      <path class="cls-8" fill="#0b231c" d="M158.7 94.47a5.09 5.09 0 1 1-5.09-5.09 5.09 5.09 0 0 1 5.09 5.09z"/>
      <path class="cls-6" fill="#fff" d="M161.32 91a3.47 3.47 0 1 1-3.47-3.47 3.47 3.47 0 0 1 3.47 3.47z"/>
      <path class="cls-9" fill="#0a6b3e" d="M124.47 84.4c-5.4 2-12.86-.66-17.81-1.82-2.17-.51-18.89-9.44-18.43-9.64 4.69-2.1 11 .78 15.9.9-3-1.35-4.13-4.5-4.62-7.66 4 .49 7.7 3.39 11.58 4.86a27.41 27.41 0 0 1-3.27-7.24c2.24-.48 12.88 5.82 15.89 7.3 5.43 2.67 8.58 7.74 3.09 12a8.45 8.45 0 0 1-2.33 1.3zM143.75 89.4c5.4 2 12.86-.65 17.81-1.82 2.17-.51 18.89-9.44 18.43-9.64-4.69-2.1-11 .78-15.9.9 3-1.35 4.13-4.5 4.62-7.66-4 .49-7.7 3.39-11.58 4.86a27.41 27.41 0 0 0 3.27-7.24c-2.24-.48-12.88 5.82-15.89 7.3-5.43 2.67-8.59 7.74-3.1 12a8.65 8.65 0 0 0 2.34 1.3z"/>
      <path class="cls-6" fill="#fff" d="M107.86 122.8s-10.38 10.38 3.46 15.87c14.18 5.61 13.85-8.95 13.85-8.95zM160 122.8s10.39 10.38-3.46 15.87c-14.17 5.61-13.85-8.95-13.85-8.95z"/>
      <path class="cls-9" fill="#0a6b3e" d="M134 131.48c-27.44 0-38.61-19.52-39.08-20.37a3.48 3.48 0 0 1 6.08-3.39c.4.71 10.1 17.33 34.2 16.79 23.87-.56 29.75-19 29.81-19.19a3.48 3.48 0 0 1 6.66 2c-.08.24-7.47 23.46-36.31 24.12-.49.04-.95.04-1.36.04z"/>
      <path class="cls-10" fill="#0a6b3e" opacity="0.3" d="M93.64 114.2c-1.75 4.26-5.78 6.64-9 5.31s-4.45-5.85-2.71-10.11 5.79-6.64 9-5.31 4.45 5.85 2.71 10.11zM206.78 143.13a8.34 8.34 0 1 1-8.34-8.33 8.33 8.33 0 0 1 8.34 8.33zM124.78 54.46a5.67 5.67 0 1 1-5.67-5.66 5.67 5.67 0 0 1 5.67 5.66zM176.13 154.47a4.34 4.34 0 1 1-4.33-4.34 4.33 4.33 0 0 1 4.33 4.34zM122.8 173.8a4.34 4.34 0 1 1-4.34-4.34 4.33 4.33 0 0 1 4.34 4.34zM73.46 147.8a4.33 4.33 0 1 1-4.33-4.34 4.33 4.33 0 0 1 4.33 4.34zM186.51 101.38c2.48 6 1.18 12.15-2.9 13.85s-9.41-1.74-11.88-7.68-1.18-12.15 2.9-13.85 9.37 1.74 11.88 7.68zM101.58 149.9c-2.64 5.88-8.86 8.81-13.91 6.54s-7-8.86-4.35-14.74 8.87-8.81 13.91-6.54 6.99 8.84 4.35 14.74zM161.39 39.22c1.58 3.53.94 7.25-1.42 8.3s-5.54-1-7.12-4.48-.94-7.25 1.41-8.3 5.55.95 7.13 4.48zM144.44 150.46a7 7 0 1 1-7-7 7 7 0 0 1 7 7z"/>
    </g>
  </g>
</svg>
