<svg xmlns="http://www.w3.org/2000/svg" viewBox="0 0 187.33 201.6">
  <defs>
    <clipPath id="clip-path">
      <path class="cls-1" fill="none" d="M187.33 93.67A93.67 93.67 0 1 1 93.67 0a93.66 93.66 0 0 1 93.66 93.67z"/>
    </clipPath>
    <clipPath id="clip-path-2">
      <path class="cls-1" fill="none" d="M123.35 111.25c0 1.35-14.56 3.55-15.7 3.72a115.9 115.9 0 0 1-32.59.32c-1.21-.16-17.84-2.45-17.86-4 .16 16.93 9 37.48 26.69 42.15 18.45 4.87 32.41-11.94 37.48-27.75a45.51 45.51 0 0 0 1.98-14.44z"/>
    </clipPath>
  </defs>
  <g id="Layer_2" data-name="Layer 2">
    <g clip-path="url(#clip-path)" id="object">
      <path d="M187.33 93.67A93.67 93.67 0 1 1 93.67 0a93.66 93.66 0 0 1 93.66 93.67z" fill="#4e3da3"/>
      <path class="cls-4" fill="#f05539" d="M144.71 180.35c16.07-25 14.62-43.6 10.57-54.81a42.31 42.31 0 0 0-13.42-19l-5.66 7.85 2.83-3.92-2.85 3.91c1.09.8 26.44 20.17.39 60.69z"/>
      <path class="cls-5" fill="#f58a3c" d="M129.23 173.41c2.59-4.22 7.59-4.25 12-4.28l9.14 3.23c3.13 1.62 9.39 7.28 7 11.83-2.14 4.13-8.08 2.68-9.7-1.15-.55 13-18 14.59-12.32-2-6.01.96-9.05-2.85-6.12-7.63zM161.53 138.4a5.65 5.65 0 1 1-5.65-5.91 5.79 5.79 0 0 1 5.65 5.91z"/>
      <path class="cls-4" fill="#f05539" d="M39.69 180.35c-16.07-25-14.61-43.6-10.56-54.81a42.31 42.31 0 0 1 13.42-19l5.65 7.85-2.83-3.92 2.85 3.91c-1.09.8-26.44 20.17-.39 60.69z"/>
      <path class="cls-5" fill="#f58a3c" d="M55.17 173.41c-2.59-4.22-7.59-4.25-12-4.28l-9.14 3.23c-3.12 1.62-9.39 7.28-7 11.83 2.14 4.13 8.08 2.68 9.71-1.15.55 13 18 14.59 12.31-2 6.01.96 9.06-2.85 6.12-7.63zM35.16 138.4a5.66 5.66 0 1 1-5.65-5.91 5.79 5.79 0 0 1 5.65 5.91z"/>
      <path class="cls-6" fill="#dd311b" d="M68.34 201.6c-1.24-27.7 2.39-45.91 2.47-46.34a4.84 4.84 0 1 0-9.47-2c-.52 2.5-3.42 21.43-2.27 48.32zM112.24 201.6h9.81c1.24-28.33-2.53-47-2.81-48.32a4.84 4.84 0 1 0-9.47 2c.09.41 3.71 18.62 2.47 46.32zM64.72 36.78c-1.85-3.52-3.87-12.3-9.12-11-12.81 3.28-4.07 35.64 7 31.91l16.65-11.78c-7.85-.07-10.79-2.03-14.53-9.13z"/>
      <path class="cls-4" fill="#f05539" d="M118.63 36.78c1.85-3.52 3.87-12.3 9.12-11 12.81 3.28 4.07 35.64-7 31.91L104.1 45.91c7.9-.07 10.79-2.03 14.53-9.13z"/>
      <path d="M140.66 96.23c-3.94-17.49-10.94-34.31-22.25-48.35-12.88-16-40.33-16-53.25 0-11.31 14-18.3 30.86-22.24 48.35-5.53 24.54.17 49.17 16.55 65.12 19.14 18.64 45.45 18.68 64.63 0 16.38-15.95 22.09-40.58 16.56-65.12z" fill="#f99f3e"/>
      <path class="cls-4" fill="#f05539" d="M107.51 87.8a16.67 16.67 0 1 1-16.67-16.67 16.67 16.67 0 0 1 16.67 16.67z"/>
      <circle class="cls-8" fill="#fff" cx="90.84" cy="87.8" r="12.91" transform="rotate(-45.83 90.83072274 87.79166838)"/>
      <circle cx="90.84" cy="87.8" r="8.87" fill="#65e5c0"/>
      <path class="cls-10" fill="#0b231c" d="M96.75 87.8a5.92 5.92 0 1 1-5.91-5.92 5.91 5.91 0 0 1 5.91 5.92z"/>
      <circle class="cls-8" fill="#fff" cx="95.77" cy="83.77" r="4.03"/>
      <path class="cls-4" fill="#f05539" d="M74.63 87.8c0 8.68-5.51 15.72-12.29 15.72S50 96.48 50 87.8s5.51-15.73 12.3-15.73 12.33 7.04 12.33 15.73z"/>
      <path class="cls-8" fill="#fff" d="M71.1 87.8c0 6.2-3.93 11.2-8.76 11.2s-8.77-5-8.77-11.21 3.93-11.21 8.77-11.21 8.76 5.03 8.76 11.22z"/>
      <path class="cls-11" fill="#39c499" d="M68.36 87.25a6 6 0 1 1-6-5.83 5.93 5.93 0 0 1 6 5.83z"/>
      <path class="cls-10" fill="#0b231c" d="M66.35 86.67a4 4 0 1 1-4-4 4 4 0 0 1 4 4z"/>
      <path class="cls-8" fill="#fff" d="M68.42 84.3c0 1.93-1.23 3.5-2.74 3.5s-2.74-1.57-2.74-3.5 1.23-3.51 2.74-3.51 2.74 1.57 2.74 3.51z"/>
      <path class="cls-4" fill="#f05539" d="M131.88 87.16c0 8.68-5.51 15.72-12.29 15.72s-12.3-7-12.3-15.72 5.51-15.73 12.3-15.73 12.29 7.05 12.29 15.73z"/>
      <path class="cls-8" fill="#fff" d="M128.35 87.16c0 6.19-3.93 11.21-8.76 11.21s-8.77-5-8.77-11.21S114.75 76 119.59 76s8.76 5 8.76 11.16z"/>
      <path class="cls-11" fill="#39c499" d="M125.61 86.61a6 6 0 1 1-6-5.83 5.93 5.93 0 0 1 6 5.83z"/>
      <path class="cls-10" fill="#0b231c" d="M123.6 86a4 4 0 1 1-4-4 4 4 0 0 1 4 4z"/>
      <path class="cls-8" fill="#fff" d="M125.67 83.66c0 1.93-1.23 3.5-2.74 3.5s-2.74-1.57-2.74-3.5 1.23-3.51 2.74-3.51 2.74 1.57 2.74 3.51z"/>
      <path d="M123.35 111.25c0 1.35-14.56 3.55-15.7 3.72a115.9 115.9 0 0 1-32.59.32c-1.21-.16-17.84-2.45-17.86-4 .16 16.93 9 37.48 26.69 42.15 18.45 4.87 32.41-11.94 37.48-27.75a45.51 45.51 0 0 0 1.98-14.44z" fill="#2e1f4a"/>
      <g clip-path="url(#clip-path-2)">
        <path d="M112.49 135.45c-4.24-8.22-16.21-8-21.2-.07-3.68-5.13-12.35-8.41-17.48-3.71-2.42 2.22-3.57 8-3.54 14.2 3.77 5.11 8.63 9 14.6 10.75 12.65 3.67 23-5 29.28-16.17a17.72 17.72 0 0 0-1.66-5z" fill="#de293c"/>
        <path class="cls-8" fill="#fff" d="M86.51 112.57c.37 3.08.49 10.27 4.63 10.58 3.38-.06 4.07-7.21 5.32-10.83zM105.61 108.83l12.91-.54c1.37 6.54 1.52 12.52-2.73 18.12.72-6.67-5.18-13.89-10.18-17.58zM99.91 113.23l5.59-.48c.26-1.92.38 10.06-1.53 10.43-3.12.61-5.79-8.18-4.06-9.95zM96.74 154.67c-.37-3.08-.49-10.27-4.63-10.58-3.38.06-4.07 7.21-5.32 10.82zM83.34 154l-5.59.48c-.27 1.91-.38-10.06 1.53-10.43 3.12-.6 5.79 8.21 4.06 9.95zM100 155.61l5.81-.32c.26 1.92.38-10.06-1.53-10.43-3.16-.61-6.05 9-4.28 10.75zM74.14 108.83l-12.9-.54c-1.38 6.54-1.53 12.52 2.73 18.12-.73-6.67 5.17-13.89 10.17-17.58zM81.46 113.23l-5.59-.48c-.27-1.92-.38 10.06 1.53 10.43 3.12.61 5.79-8.18 4.06-9.95z"/>
      </g>
    </g>
  </g>
</svg>
