<svg xmlns="http://www.w3.org/2000/svg" viewBox="0 0 170.67 340.46">
  <defs>
    <clipPath id="clip-path">
      <path d="M123.33 106.07c0 1.67-18 4.4-19.46 4.62a143.89 143.89 0 0 1-40.4.39c-1.5-.2-22.12-3-22.14-5 .19 21 11.14 46.46 33.08 52.25 22.87 6 40.18-14.8 46.46-34.4a56.17 56.17 0 0 0 2.46-17.86z" fill="none"/>
    </clipPath>
  </defs>
  <g id="Layer_2" data-name="Layer 2">
    <g id="object">
      <path class="cls-2" fill="#f05539" d="M149.82 191.74c19.92-31 18.12-54.06 13.1-67.95a52.39 52.39 0 0 0-16.64-23.5l-7 9.74 3.5-4.87-3.54 4.84c1.36 1 32.78 25 .49 75.24z"/>
      <path class="cls-3" fill="#f58a3c" d="M130.63 183.13c3.2-5.23 9.4-5.27 14.81-5.3l11.33 4c3.87 2 11.64 9 8.72 14.66-2.66 5.12-10 3.33-12-1.42-.69 16.09-22.35 18.09-15.27-2.48-7.46 1.21-11.22-3.54-7.59-9.46zM170.67 139.73a7 7 0 1 1-7-7.33 7.18 7.18 0 0 1 7 7.33z"/>
      <path class="cls-2" fill="#f05539" d="M19.62 191.74c-19.92-31-18.12-54.06-13.1-67.95a52.39 52.39 0 0 1 16.64-23.5l7 9.74-3.5-4.87L30.2 110c-1.36 1-32.78 25-.49 75.24z"/>
      <path class="cls-3" fill="#f58a3c" d="M38.81 183.13c-3.2-5.23-9.4-5.27-14.81-5.3l-11.33 4c-3.87 2-11.64 9-8.72 14.66 2.66 5.12 10 3.33 12-1.42.69 16.09 22.35 18.09 15.27-2.48 7.46 1.21 11.23-3.54 7.59-9.46zM14 139.73a7.18 7.18 0 0 1-7 7.34 7.34 7.34 0 0 1 0-14.67 7.17 7.17 0 0 1 7 7.33z"/>
      <path class="cls-4" fill="#dd311b" d="M67.67 319.41a6 6 0 0 1-5.65-4c-27.77-77.72-16.75-151.55-15.56-157.24a6 6 0 0 1 11.75 2.46c-.19.93-13.87 69.62 15.11 150.76a6 6 0 0 1-3.64 7.66 5.88 5.88 0 0 1-2.01.36z"/>
      <path class="cls-3" fill="#f58a3c" d="M73 311.07l-12 .67c-2.54 4.22-5.71 5-10.35 6-9.9 2.11-22-.24-29.95 7.35-9.68 9.31-3.07 13.91 7.51 15 12.81 1.35 26.57-1.37 38.6-5.56C77.22 330.93 78.9 320 73 311.07z"/>
      <path class="cls-4" fill="#dd311b" d="M97 319.41a6 6 0 0 0 5.65-4c30.22-84.62 16.17-154.32 15.55-157.25a6 6 0 0 0-11.74 2.46c.19.93 13.86 69.62-15.11 150.76a6 6 0 0 0 5.65 8z"/>
      <path class="cls-3" fill="#f58a3c" d="M91.7 311.07l12 .67c2.54 4.22 5.71 5 10.35 6 9.9 2.11 22.06-.24 30 7.35 9.68 9.31 3.08 13.91-7.51 15-12.81 1.35-26.57-1.37-38.6-5.56-10.45-3.6-12.14-14.53-6.24-23.46z"/>
      <path class="cls-4" fill="#dd311b" d="M50.65 13.75C48.35 9.39 45.86-1.5 39.35.17 23.47 4.25 34.3 44.36 48 39.74l20.67-14.67c-9.74-.07-13.39-2.52-18.02-11.32z"/>
      <path class="cls-2" fill="#f05539" d="M117.48 13.75c2.3-4.36 4.8-15.25 11.31-13.58 15.87 4.08 5 44.19-8.66 39.57L99.47 25.07c9.73-.07 13.38-2.52 18.01-11.32z"/>
      <path d="M144.79 87.45c-4.88-21.69-13.56-42.54-27.58-59.94-16-19.82-50-19.88-66 0-14 17.4-22.7 38.25-27.58 59.94-6.85 30.42.22 61 20.53 80.73 23.72 23.1 56.33 23.16 80.11 0 20.3-19.77 27.37-50.31 20.52-80.73z" fill="#f99f3e"/>
      <path class="cls-2" fill="#f05539" d="M103.69 77A20.67 20.67 0 1 1 83 56.33 20.66 20.66 0 0 1 103.69 77z"/>
      <circle class="cls-6" fill="#fff" cx="83.03" cy="77" r="16"/>
      <circle cx="83.03" cy="77" r="11" fill="#65e5c0"/>
      <path class="cls-8" fill="#0b231c" d="M90.36 77A7.34 7.34 0 1 1 83 69.66 7.33 7.33 0 0 1 90.36 77z"/>
      <circle class="cls-6" fill="#fff" cx="89.14" cy="72" r="5"/>
      <ellipse class="cls-2" fill="#f05539" cx="47.69" cy="77" rx="15.24" ry="19.49"/>
      <path class="cls-6" fill="#fff" d="M58.55 77c0 7.67-4.86 13.89-10.86 13.89S36.83 84.67 36.83 77s4.86-13.9 10.86-13.9S58.55 69.32 58.55 77z"/>
      <path class="cls-9" fill="#39c499" d="M55.16 76.32a7.47 7.47 0 1 1-7.47-7.23 7.35 7.35 0 0 1 7.47 7.23z"/>
      <path class="cls-8" fill="#0b231c" d="M52.67 75.6a5 5 0 1 1-5-5 5 5 0 0 1 5 5z"/>
      <path class="cls-6" fill="#fff" d="M55.23 72.66c0 2.39-1.51 4.34-3.39 4.34s-3.39-2-3.39-4.34 1.52-4.35 3.39-4.35 3.39 1.95 3.39 4.35z"/>
      <ellipse class="cls-2" fill="#f05539" cx="118.67" cy="76.2" rx="15.24" ry="19.49"/>
      <path class="cls-6" fill="#fff" d="M129.53 76.2c0 7.68-4.87 13.9-10.86 13.9s-10.86-6.22-10.86-13.9 4.86-13.89 10.86-13.89 10.86 6.22 10.86 13.89z"/>
      <path class="cls-9" fill="#39c499" d="M126.13 75.53a7.47 7.47 0 1 1-7.46-7.23 7.35 7.35 0 0 1 7.46 7.23z"/>
      <path class="cls-8" fill="#0b231c" d="M123.64 74.81a5 5 0 1 1-5-5 5 5 0 0 1 5 5z"/>
      <path class="cls-6" fill="#fff" d="M126.21 71.86c0 2.4-1.52 4.34-3.4 4.34s-3.39-1.94-3.39-4.34 1.52-4.34 3.39-4.34 3.4 1.95 3.4 4.34z"/>
      <path d="M123.33 106.07c0 1.67-18 4.4-19.46 4.62a143.89 143.89 0 0 1-40.4.39c-1.5-.2-22.12-3-22.14-5 .19 21 11.14 46.46 33.08 52.25 22.87 6 40.18-14.8 46.46-34.4a56.17 56.17 0 0 0 2.46-17.86z" fill="#2e1f4a"/>
      <g clip-path="url(#clip-path)">
        <path d="M109.87 136.07c-5.25-10.19-20.09-9.9-26.28-.08-4.57-6.36-15.31-10.43-21.67-4.6-3 2.75-4.43 9.94-4.39 17.6 4.67 6.33 10.7 11.19 18.1 13.33 15.68 4.54 28.49-6.13 36.3-20a21.54 21.54 0 0 0-2.06-6.25z" fill="#de293c"/>
        <path class="cls-6" fill="#fff" d="M77.67 107.7c.45 3.83.6 12.74 5.73 13.12 4.19-.08 5-8.93 6.6-13.42zM101.34 103.07l16-.67c1.7 8.11 1.89 15.52-3.38 22.47.9-8.28-6.41-17.22-12.62-21.8zM94.27 108.53l6.94-.6c.32-2.37.46 12.47-1.9 12.93-3.87.76-7.18-10.16-5.04-12.33zM90.34 159.9c-.45-3.82-.6-12.74-5.73-13.12-4.2.08-5 8.94-6.6 13.42zM73.73 159.08l-6.93.59c-.33 2.38-.47-12.47 1.9-12.93 3.87-.74 7.18 10.17 5.03 12.34zM94.33 161.07l7.21-.4c.33 2.38.47-12.47-1.9-12.93-3.87-.74-7.45 11.16-5.31 13.33zM62.33 103.07l-16-.67c-1.7 8.11-1.89 15.52 3.38 22.47-.89-8.28 6.42-17.22 12.62-21.8zM71.4 108.53l-6.93-.6c-.33-2.37-.47 12.47 1.9 12.93 3.86.76 7.18-10.16 5.03-12.33z"/>
      </g>
      <path class="cls-2" fill="#f05539" d="M54.33 247.4a7 7 0 1 1-7-7.33 7.18 7.18 0 0 1 7 7.33zM125 247.4a7 7 0 1 1-7-7.33 7.18 7.18 0 0 1 7 7.33z"/>
      <path class="cls-4" fill="#dd311b" d="M22 338.74s7.33-11.34 26.67-15.34c0 0-26-2.66-30.67 12.67zM141.33 339.4s-7.33-11.33-26.66-15.33c0 0 26-2.67 30.66 12.67z"/>
    </g>
  </g>
</svg>
