<svg width="38" height="30" viewBox="0 0 38 30" xmlns="http://www.w3.org/2000/svg"><g fill="currentColor" fill-rule="evenodd"><path d="M10.272 20.627L3.07 14.644l7.202-5.942c.512-.431.59-1.173.157-1.682a1.26 1.26 0 0 0-1.73-.157L.432 13.746a1.19 1.19 0 0 0-.433.937c0 .392.157.706.433.939l8.305 6.882c.236.196.472.274.788.274.353 0 .708-.156.943-.431a1.265 1.265 0 0 0-.197-1.72M37.428 15.008c0-.348-.153-.696-.424-.926L28.812 7.28a1.232 1.232 0 0 0-1.7.155c-.425.503-.347 1.236.155 1.662l7.071 5.912-7.033 5.91a1.175 1.175 0 0 0-.153 1.662c.232.27.54.425.926.425.271 0 .541-.116.774-.27l8.152-6.803c.27-.231.426-.578.426-.925h-.002zM23.03.093c-.117-.04-.232-.04-.347-.04-.503 0-.966.31-1.12.85l-8.618 27.589c-.194.619.153 1.275.771 1.469.117.04.233.04.348.04.54 0 .966-.348 1.12-.85L23.76 1.523c.234-.58-.112-1.237-.732-1.43z"/></g></svg>
