<?xml version="1.0" encoding="utf-8"?>
<svg viewBox="290.962 128.082 307.124 251.372" width="307.124" height="251.372" xmlns="http://www.w3.org/2000/svg">
  <defs>
    <linearGradient id="grad1" x1="0%" y1="0%" x2="100%" y2="0%">
      <stop offset="0%" style="stop-color:#F5E356;stop-opacity:1" />
      <stop offset="100%" style="stop-color:#CB6318;stop-opacity:1" />
    </linearGradient>
  </defs>
  <g transform="matrix(0.015133, 0, -0.000266, -0.015133, 359.338165, 349.059753)" fill="#F5E356" stroke="none">
    <path d="M2335 5419 c-360 -23 -797 -95 -1450 -239 -99 -22 -331 -69 -515 -106 -184 -37 -340 -68 -346 -70 -15 -3 -29 -339 -21 -469 13 -200 45 -273 189 -438 245 -281 285 -348 342 -582 128 -521 331 -1112 545 -1584 133 -295 311 -475 636 -642 554 -286 1278 -380 2055 -269 475 69 861 268 1205 621 245 252 440 538 650 954 107 211 139 297 220 600 66 245 100 346 161 470 86 179 138 216 309 223 55 2 161 -1 235 -6 161 -11 191 -23 271 -109 105 -114 171 -251 259 -543 217 -719 484 -1209 851 -1565 174 -168 310 -265 518 -369 406 -204 854 -306 1346 -306 910 0 1659 377 2041 1027 136 230 208 434 354 1003 171 666 214 794 320 950 45 66 126 143 197 188 88 56 88 55 86 422 0 85 0 189 1 230 2 138 -44 177 -257 216 -171 32 -290 60 -572 138 -327 91 -379 103 -654 146 -683 108 -863 125 -1230 117 -488 -11 -826 -59 -1826 -257 -675 -134 -955 -181 -1278 -215 -248 -26 -554 -36 -773 -25 -392 19 -583 48 -1179 180 -550 122 -661 143 -1031 195 -786 109 -1239 140 -1659 114z"/>
  </g>
  <g transform="matrix(0.023643, 0, -0.000416, -0.023643, 295.39444, 381.321777)" fill="url(#grad1)" stroke="none">
    <path d="M3535 10704 c-318 -18 -482 -30 -734 -55 -161 -15 -295 -30 -297 -32 -2 -2 126 -23 284 -46 1056 -158 1533 -260 1904 -410 110 -44 298 -140 399 -204 81 -51 272 -189 267 -192 -2 0 -73 3 -158 7 -161 9 -408 4 -615 -13 -916 -72 -1885 -362 -2965 -886 -260 -126 -761 -395 -690 -370 8 3 155 59 326 126 477 184 856 309 1159 381 155 37 170 37 75 -1 -192 -78 -443 -211 -632 -335 -613 -404 -1244 -1081 -1756 -1886 -101 -159 -100 -158 -66 -127 520 461 1115 893 1605 1167 135 75 380 200 364 185 -5 -5 -59 -45 -120 -89 -777 -559 -1375 -1472 -1777 -2714 -28 -85 -53 -159 -56 -165 -3 -5 -3 -8 0 -5 4 3 42 75 86 160 351 686 800 1230 1369 1656 111 83 328 229 359 241 12 4 10 -4 -8 -33 -30 -47 -127 -237 -161 -315 -13 -31 -60 -109 -104 -175 -117 -175 -222 -360 -333 -587 -331 -677 -538 -1452 -640 -2395 -23 -214 -24 -241 -3 -152 105 454 266 898 474 1312 77 153 263 475 289 502 5 5 6 -55 3 -140 l-5 -149 -48 -120 c-51 -127 -103 -289 -145 -445 -33 -126 -95 -401 -94 -420 0 -8 17 32 38 90 63 173 169 422 238 555 l21 39 5 -39 c4 -22 9 -85 13 -140 6 -110 48 -498 63 -586 6 -33 6 -84 1 -125 -21 -163 -32 -295 -45 -539 -15 -273 -19 -828 -5 -785 4 14 9 48 10 75 1 28 5 63 9 80 3 16 5 -144 4 -355 l-2 -385 19 140 c39 292 97 596 154 805 25 94 35 119 40 100 194 -791 357 -1338 615 -2064 100 -279 284 -767 288 -762 2 2 -10 46 -26 97 -106 333 -215 793 -285 1199 -73 419 -111 800 -124 1215 -8 273 -2 684 10 650 4 -11 34 -121 67 -245 69 -255 155 -556 230 -803 50 -163 51 -172 52 -300 2 -131 3 -132 15 -7 l7 65 12 -40 c62 -196 340 -1024 342 -1021 2 2 -9 62 -26 132 -90 386 -218 1147 -246 1454 -5 59 -2 51 35 -80 78 -280 142 -504 186 -654 102 -339 371 -1165 373 -1143 1 5 -17 74 -39 154 -45 165 -124 512 -169 743 -108 556 -167 1099 -187 1701 -5 169 -3 205 11 258 20 71 35 87 35 38 0 -51 46 -389 95 -703 60 -379 209 -1192 221 -1203 4 -3 3 12 0 34 -3 22 -10 110 -16 195 -59 963 27 1833 256 2589 36 116 52 155 40 92 -24 -126 -61 -527 -76 -811 -12 -242 -12 -805 1 -660 59 694 198 1300 429 1880 43 108 215 470 223 470 3 0 -3 -28 -14 -62 -95 -308 -160 -688 -188 -1093 -16 -227 -23 -617 -11 -610 6 3 10 26 10 49 0 24 9 112 20 196 82 610 241 1100 484 1485 57 91 175 248 236 315 39 41 40 42 20 10 -82 -135 -170 -337 -230 -530 -23 -74 -62 -184 -85 -245 -52 -133 -93 -263 -135 -419 -40 -148 -110 -459 -106 -464 2 -2 16 34 31 80 31 93 151 388 163 400 4 4 4 -25 0 -65 -3 -39 -6 -160 -6 -267 1 -107 3 -179 5 -160 2 19 13 89 24 155 80 475 264 895 548 1252 36 45 66 81 68 80 1 -2 -4 -48 -11 -102 -39 -279 -56 -597 -55 -975 1 -233 3 -276 10 -205 64 671 169 1108 367 1526 50 105 51 106 139 172 86 64 295 199 300 194 1 -2 -6 -32 -17 -67 -57 -194 -90 -448 -95 -740 l-4 -225 19 109 c70 384 202 712 412 1018 55 81 68 94 118 116 94 42 398 139 550 176 151 37 405 86 443 86 16 0 80 -61 217 -206 l195 -206 17 -87 c33 -173 49 -330 56 -546 l6 -220 18 125 c33 235 49 455 55 740 l5 285 28 50 c26 47 76 156 100 219 l10 28 35 -45 c97 -127 233 -381 395 -737 123 -269 182 -388 187 -373 8 23 -303 1021 -359 1151 -10 24 -18 48 -18 54 0 10 165 3 216 -9 36 -8 172 -305 256 -558 108 -329 175 -751 179 -1134 2 -133 7 -115 34 118 53 453 38 917 -41 1308 -14 67 -31 144 -39 170 -29 96 -11 86 71 -39 183 -279 305 -590 358 -913 8 -49 17 -101 20 -115 10 -51 -6 330 -19 475 -8 83 -26 216 -39 295 -13 80 -24 146 -23 147 1 1 39 -31 84 -70 164 -143 211 -219 351 -567 182 -455 256 -688 298 -939 7 -46 16 -87 20 -90 3 -3 3 10 0 29 -3 19 -8 71 -11 115 -8 98 -31 290 -45 365 -5 30 -17 118 -25 195 -9 77 -22 174 -30 215 -7 41 -12 76 -10 78 6 6 184 -266 259 -397 570 -990 883 -2356 887 -3868 0 -179 2 -323 4 -321 4 4 28 269 47 518 17 225 17 1094 0 1305 -17 209 -48 481 -71 625 -10 63 -17 117 -16 118 10 11 56 -175 79 -313 84 -522 128 -995 130 -1380 1 -239 1 -241 -37 -435 -44 -223 -123 -573 -162 -709 -14 -51 -24 -95 -22 -97 2 -2 54 125 116 284 62 158 116 289 118 292 15 15 -32 -952 -53 -1095 -4 -22 -4 -38 -1 -35 12 12 176 1025 236 1460 39 275 41 293 46 289 14 -15 112 -671 145 -974 39 -366 37 -361 39 -125 1 250 -15 996 -29 1315 l-9 220 39 125 c60 194 98 327 156 555 l54 210 -5 -140 c-14 -334 -70 -719 -151 -1019 -13 -50 -22 -91 -20 -93 5 -5 179 486 252 711 l67 210 14 -40 c30 -85 134 -459 177 -634 111 -454 234 -1127 288 -1567 13 -108 28 -137 28 -55 0 26 7 126 15 222 48 571 67 975 67 1420 0 464 -8 602 -67 1075 l-5 40 14 -45 c8 -25 41 -151 74 -280 143 -551 274 -1207 397 -1980 20 -123 37 -226 39 -227 4 -5 -4 442 -15 782 -29 955 -124 1882 -265 2588 -14 71 -24 130 -22 132 5 6 102 -265 144 -402 54 -178 120 -440 153 -608 34 -169 81 -478 81 -527 0 -18 5 -40 11 -48 13 -19 5 649 -11 880 -31 459 -101 910 -200 1295 -44 171 -117 410 -155 504 -13 36 -23 66 -21 68 11 12 236 -488 311 -695 21 -56 39 -101 41 -99 2 1 -21 97 -50 212 -170 665 -354 1196 -594 1720 -106 231 -260 522 -360 680 l-45 69 179 -171 c99 -94 219 -205 268 -247 118 -100 286 -229 292 -223 7 6 -76 180 -142 299 -435 781 -1138 1428 -1909 1758 -121 52 -313 120 -458 161 -42 12 -75 24 -73 26 12 12 375 -50 576 -98 247 -60 633 -183 898 -287 l103 -41 -30 37 c-43 55 -235 239 -321 308 -343 276 -785 509 -1247 657 -848 273 -1731 256 -2503 -48 -126 -50 -334 -150 -444 -213 -49 -29 -91 -52 -94 -52 -3 0 -30 28 -61 63 -211 237 -434 433 -676 593 -486 323 -1062 512 -1750 574 -119 11 -664 21 -780 14z m4409 -3655 c-33 -13 -48 -11 -35 5 7 8 21 12 33 8 21 -5 21 -6 2 -13z m-2 -136 c3 -38 4 -69 3 -71 -1 -1 -11 21 -23 50 -11 29 -23 61 -27 71 -6 13 -2 17 18 17 23 0 25 -3 29 -67z m-109 -90 c9 -38 18 -84 21 -103 l6 -35 -23 30 c-12 17 -36 46 -54 66 l-32 35 25 42 c14 23 29 40 34 37 4 -3 15 -35 23 -72z"/>
  </g>
</svg>