<svg width="32" height="33" viewBox="0 0 32 33" xmlns="http://www.w3.org/2000/svg"><g fill="currentColor" fill-rule="evenodd"><path d="M20.128 32.158c-.65 0-1.18-.529-1.18-1.18V24.23l-5.014-11.045a1.183 1.183 0 0 1 1.074-1.669c.463 0 .886.272 1.077.694l4.98 10.974c.17.251.245.484.245.726l-.002 7.068c0 .651-.53 1.18-1.18 1.18M25.731 32.158a1.18 1.18 0 0 1-1.179-1.18v-7.07c0-.222.066-.44.19-.636l4.998-10.997a1.182 1.182 0 0 1 1.563-.588c.592.27.855.971.586 1.563l-4.974 10.958-.004 6.77c0 .651-.53 1.18-1.18 1.18M22.933 2.945a3.056 3.056 0 0 0-3.054 3.052 3.057 3.057 0 0 0 3.054 3.054 3.056 3.056 0 0 0 3.052-3.054 3.055 3.055 0 0 0-3.052-3.052zm0 8.21a5.165 5.165 0 0 1-5.16-5.158A5.165 5.165 0 0 1 22.932.84a5.165 5.165 0 0 1 5.16 5.158 5.124 5.124 0 0 1-1.513 3.646 5.118 5.118 0 0 1-3.643 1.512h-.004zM7.715 32.373a1.188 1.188 0 0 1-1.187-1.187v-5.95h-5.31c-.508 0-.96-.329-1.122-.818a1.19 1.19 0 0 1 .009-.956L5.16 12.326a1.186 1.186 0 0 1 2.193.074c.112.297.1.62-.03.907l-4.34 9.555H7.68c.323 0 .624.13.849.364.24.232.37.534.37.857l.004 7.103a1.19 1.19 0 0 1-1.188 1.187M13.536 32.376a1.188 1.188 0 0 1-1.187-1.187v-7.106a1.188 1.188 0 0 1 2.375 0v7.106a1.19 1.19 0 0 1-1.188 1.187M10.104 2.12a3.069 3.069 0 0 0-3.066 3.065 3.069 3.069 0 0 0 3.066 3.066 3.072 3.072 0 0 0 3.066-3.066 3.069 3.069 0 0 0-3.066-3.066m0 8.251a5.192 5.192 0 0 1-5.186-5.185A5.192 5.192 0 0 1 10.104 0a5.19 5.19 0 0 1 5.185 5.185 5.19 5.19 0 0 1-5.185 5.185"/></g></svg>
