<svg xmlns="http://www.w3.org/2000/svg" viewBox="0 0 100 100">
  <path d="M27.252 71.997H7.48c-.198 0-.359-.161-.359-.36V24.602c0-.199.161-.36.359-.36h26.531c.199 0 .36.161.36.36V51.57h1.889V19.206c0-2.186-1.772-3.957-3.958-3.957h-.904c-.057-.123-.18-.21-.325-.21h-3.447c-.145 0-.268.087-.325.21H9.1c-2.186 0-3.958 1.771-3.958 3.957v5.112c-.123.058-.209.18-.209.325v1.308c0 .145.086.268.209.324v1.521c-.123.057-.209.18-.209.325v1.308c0 .144.086.267.209.324v47.161c0 2.186 1.772 3.957 3.958 3.957h18.152v-8.874zm-6.67-54.2c.332 0 .599.268.599.599 0 .332-.268.6-.599.6-.331 0-.6-.269-.6-.6 0-.331.268-.599.6-.599zm-2.099 2.818h4.497c.199 0 .359.161.359.359 0 .198-.161.359-.359.359h-4.497c-.198 0-.36-.161-.36-.359 0-.199.162-.359.36-.359zm2.458 58.755c-1.719 0-3.117-1.397-3.117-3.116s1.398-3.117 3.117-3.117c1.72 0 3.118 1.398 3.118 3.117s-1.398 3.116-3.118 3.116z"/>
  <path d="M20.956 73.826c-1.322 0-2.398 1.076-2.398 2.397 0 1.323 1.076 2.397 2.398 2.397 1.323 0 2.398-1.074 2.398-2.397 0-1.321-1.076-2.397-2.398-2.397zM33.667 66.631c-1.322 0-2.398 1.076-2.398 2.397 0 1.323 1.076 2.399 2.398 2.399s2.398-1.076 2.398-2.399c-.001-1.321-1.076-2.397-2.398-2.397z"/>
  <path d="M94.672 75.391V57.188c0-2.187-1.77-3.957-3.958-3.957h-5.112c-.055-.124-.179-.21-.324-.21H83.97c-.144 0-.268.086-.322.21h-1.522c-.057-.124-.181-.21-.326-.21h-1.306c-.146 0-.268.086-.324.21H33.007c-2.186 0-3.957 1.771-3.957 3.957v23.203c0 2.187 1.771 3.957 3.957 3.957h57.707c2.188 0 3.958-1.771 3.958-3.957v-.904c.123-.057.21-.179.21-.325v-3.447c0-.146-.087-.268-.21-.324zm-61.005-3.245c-1.719 0-3.118-1.397-3.118-3.118 0-1.718 1.399-3.118 3.118-3.118s3.118 1.4 3.118 3.118c-.001 1.721-1.399 3.118-3.118 3.118zM85.68 82.1c0 .199-.163.359-.361.359H38.283c-.199 0-.359-.16-.359-.359V55.568c0-.199.161-.359.359-.359h47.035c.198 0 .361.16.361.359V82.1zm3.626-11.032c0 .197-.161.359-.359.359s-.359-.162-.359-.359v-4.497c0-.199.161-.36.359-.36s.359.161.359.36v4.497zm2.217-1.8c-.33 0-.6-.267-.6-.598s.27-.6.6-.6c.332 0 .601.269.601.6s-.269.598-.601.598zM44.382 27.092l-1.828 1.692c9.584.961 14.145 6.547 16.289 11.157 2.386 5.135 2.343 10.049 2.343 10.256l-.008.53H59.74l.008-.549c.004-.046.031-4.835-2.231-9.674-2.84-6.068-7.858-9.515-14.925-10.268l1.604 1.73-2.07-.079-2.344-2.53 2.53-2.345 2.07.08z"/>
</svg>
