<svg width="22" height="32" viewBox="0 0 22 32" xmlns="http://www.w3.org/2000/svg"><g fill="currentColor" fill-rule="evenodd" opacity=".5"><path d="M17.282 23.714l-1.356.634c-.006.003-.012 0-.015-.005l-3.224-6.834a.012.012 0 0 1 .006-.015l1.356-.635c.006-.002.013 0 .015.006l3.223 6.834a.011.011 0 0 1-.005.015m-4.131 1.932l-1.356.634c-.005.002-.012 0-.015-.005L8.556 19.44a.011.011 0 0 1 .006-.015l1.355-.634a.012.012 0 0 1 .016.006l3.223 6.834c.003.006.001.012-.005.015M14.47 12.65L6.62 15.313a.012.012 0 0 1-.015-.006L4.386 10.6c-.52-1.101-1.808-1.678-2.942-1.228A2.268 2.268 0 0 0 .217 12.45l4.845 10.272c.003.006 0 .013-.006.016l-1.355.634a.012.012 0 0 1-.016-.006l-1.283-2.72c-.003-.006-.01-.01-.016-.006l-.667.312a2.279 2.279 0 0 0-1.1 3.037l1.18 2.503a7.587 7.587 0 0 0 3.316 3.469l3.237 1.711a2.823 2.823 0 0 0 2.515.062l9.654-4.515a2.163 2.163 0 0 0 1.228-2.278l-1.294-8.658c-.42-2.806-3.29-4.548-5.985-3.632M20.607 8.656c-.078-.281-2.033-6.93-9.899-6.82-7.89.108-9.355 6.368-9.368 6.431L.086 7.94c.017-.077.432-1.91 1.961-3.75C3.444 2.51 6.077.494 10.692.43c4.62-.062 7.402 2.054 8.924 3.841 1.653 1.944 2.203 3.9 2.226 3.982l-1.235.403z"/></g></svg>