<svg width="32" height="32" viewBox="0 0 32 32" xmlns="http://www.w3.org/2000/svg"><g transform="translate(1 1)" stroke="currentColor" stroke-width="2" fill="none" fill-rule="evenodd" stroke-linecap="round" stroke-linejoin="round"><path d="M6.747 3c.988.729 1.406.644 2.02 1.692.603.997 1.972 3.77.726 5.335C8.083 11.797 4 12.394 4 14.025c0 1.228 1.79 2.627 2.747 3.998a4.642 4.642 0 0 1 0 5.333A5.061 5.061 0 0 1 4.97 25M26 5.618a32.08 32.08 0 0 1-7.621 2.376c-1.404.1-1.613-1.051-2.688-2.68C14.884 4.09 13 2.562 13 1.295c-.01-.438.049-.875.176-1.295"/><circle cx="15" cy="15" r="15"/><path d="M26 15.914c.06 4.009-5.663 9.02-8.574 7.936-2.552-.955-.753-2.784-1.406-7.936-.272-2.143 2.234-3.905 4.998-3.905 2.547-.152 4.76 1.583 4.982 3.905z"/></g></svg>
