<svg width="16" height="16" viewport="0 0 16 16" xmlns="http://www.w3.org/2000/svg"><g fill="currentColor" fill-rule="nonzero" opacity=".40000001"><path d="M8.142 7.507C8.094 7.506 8.048 7.5 8 7.5c-1.9 0-3.6.7-4.9 2.1L4.5 11c.798-.886 1.912-1.357 3.06-1.457l.582-2.036zM10.13 7.827l-.557 1.949c.724.242 1.398.636 1.927 1.224l1.4-1.4c-.79-.851-1.729-1.439-2.77-1.773zM8.848 5.039l.557-1.946C8.942 3.037 8.475 3 8 3 5 3 2.2 4.1 0 6.2l1.4 1.4C3.2 5.9 5.5 5 8 5c.286 0 .568.015.848.039zM11.368 3.493l-.55 1.924c1.4.428 2.684 1.186 3.781 2.283L16 6.2c-1.349-1.287-2.924-2.195-4.632-2.707z"/><path d="M6.001 16c-.092 0-.184-.013-.275-.039-.531-.152-.839-.705-.688-1.236l4-14c.152-.532.711-.839 1.236-.687.531.152.839.705.688 1.236l-4 14c-.126.44-.526.726-.961.726z"/></g></svg>